<svg class="page-icon" width="52px" height="52px" viewBox="0 0 52 52" version="1.1" xmlns="http://www.w3.org/2000/svg" xmlns:xlink="http://www.w3.org/1999/xlink">
    <title>icon-pencil</title>
    <g stroke="none" stroke-width="1" fill="none" fill-rule="evenodd">
        <path d="M49.695,10.203 L41.765,2.277 C41.011,1.519 40.128,0.949 39.191,0.57 C38.254,0.187 37.261,-0.004 36.261,-0.004 C35.257,-0.004 34.254,0.187 33.308,0.574 C32.359,0.957 31.468,1.539 30.707,2.297 C30.687,2.324 30.519,2.488 30.257,2.75 C29.98,3.027 29.593,3.414 29.148,3.863 L5.039,27.972 C4.816,28.187 4.675,28.468 4.613,28.758 C4.597,28.812 4.578,28.875 4.558,28.953 C4.195,30.656 0.031,50.105 0.031,50.105 C0.011,50.218 0,50.328 0,50.433 C0,50.843 0.16,51.246 0.461,51.543 C0.754,51.84 1.16,52 1.57,52 C1.683,52 1.789,51.992 1.898,51.965 C1.898,51.965 18.8,48.351 23.187,47.414 C23.578,47.332 23.89,47.105 24.117,46.808 L48.765,22.156 C48.941,21.98 49.089,21.828 49.218,21.703 C49.5,21.422 49.668,21.254 49.668,21.254 C50.429,20.492 51.007,19.601 51.39,18.656 C51.777,17.707 51.968,16.703 51.968,15.703 C51.968,14.711 51.781,13.718 51.398,12.777 C51.019,11.84 50.453,10.957 49.695,10.203 Z M43.207,23.277 L28.695,8.758 L30.918,6.535 L45.437,21.051 L43.207,23.277 Z M40.996,25.496 L22.886,43.605 L20.644,41.363 L38.754,23.254 L40.996,25.496 Z M26.48,10.98 L29.132,13.633 L11.023,31.742 L8.367,29.086 L26.48,10.98 Z M13.254,33.965 L31.351,15.859 L36.527,21.035 L18.421,39.14 L13.254,33.965 Z M4.593,43.824 C4.8,42.855 5.015,41.836 5.234,40.812 C5.91,37.656 6.601,34.429 7.07,32.226 L19.777,44.933 C17.164,45.488 13.574,46.261 10.242,46.968 C9.539,47.129 8.851,47.273 8.179,47.414 L4.593,43.824 Z M30.695,2.328 L30.691,2.324 L30.695,2.328 Z M30.64,2.476 C30.64,2.418 30.648,2.398 30.656,2.383 C30.648,2.41 30.64,2.441 30.64,2.476 Z" class="fill" fill="#000000"></path>
    </g>
</svg>