<svg class="page-icon" width="68px" height="65px" viewBox="0 0 68 65" version="1.1" xmlns="http://www.w3.org/2000/svg" xmlns:xlink="http://www.w3.org/1999/xlink">
    <title>icon-mail</title>
    <g stroke="none" stroke-width="1" fill="none" fill-rule="evenodd">
        <g transform="translate(0.032000, 0.000000)" class="fill" fill="#000000">
            <path d="M61.414,21.27 L58.398,21.27 L58.398,0.965 L9.961,0.965 L9.961,21.27 L6.484,21.27 C3.02,21.27 0.203,24.086 0.203,27.551 L0.203,58.16 C0.203,61.621 3.02,64.441 6.484,64.441 L61.414,64.441 C64.879,64.441 67.695,61.621 67.695,58.16 L67.695,27.551 C67.695,24.086 64.883,21.27 61.414,21.27 Z M25.246,39.633 L4.398,57.977 L4.398,27.551 C4.398,27.398 4.457,27.266 4.484,27.129 L25.246,39.633 Z M29.012,41.902 L32.879,44.23 C32.891,44.234 32.902,44.234 32.914,44.238 C33.23,44.422 33.586,44.523 33.953,44.523 C34.32,44.523 34.676,44.422 35,44.238 C35.008,44.23 35.02,44.234 35.031,44.23 L39.789,41.367 L61.254,60.254 L8.148,60.254 L29.012,41.902 Z M43.551,39.102 L63.426,27.129 C63.457,27.266 63.516,27.398 63.516,27.555 L63.516,56.668 L43.551,39.102 Z M14.148,5.152 L54.215,5.152 L54.215,27.781 L33.957,39.992 L14.148,28.062 L14.148,5.152 Z M9.961,25.547 L9.812,25.457 L9.961,25.457 L9.961,25.547 Z"></path>
            <path d="M19.527,18.254 L34.109,18.254 C35.266,18.254 36.203,17.312 36.203,16.16 C36.203,15.004 35.266,14.066 34.109,14.066 L19.527,14.066 C18.375,14.066 17.434,15.004 17.434,16.16 C17.438,17.316 18.371,18.254 19.527,18.254 Z"></path>
            <path d="M19.793,12.191 L33.793,12.191 C34.949,12.191 35.887,11.254 35.887,10.098 C35.887,8.941 34.949,8.004 33.793,8.004 L19.793,8.004 C18.637,8.004 17.699,8.941 17.699,10.098 C17.699,11.254 18.637,12.191 19.793,12.191 Z"></path>
            <path d="M17.699,22.137 C17.699,23.293 18.637,24.23 19.793,24.23 L42.172,24.23 C43.328,24.23 44.266,23.293 44.266,22.137 C44.266,20.98 43.328,20.043 42.172,20.043 L19.793,20.043 C18.637,20.043 17.699,20.98 17.699,22.137 Z"></path>
        </g>
    </g>
</svg>