<svg class="page-icon" width="57px" height="68px" viewBox="0 0 57 68" version="1.1" xmlns="http://www.w3.org/2000/svg" xmlns:xlink="http://www.w3.org/1999/xlink">
    <title>icon-code-fork</title>
    <g stroke="none" stroke-width="1" fill="none" fill-rule="evenodd">
        <path d="M24,48.176 C21.113,42.055 1.613,41.453 1.613,30.5 L1.613,21.09 C0.613,20.02 0,18.582 0,17 C0,13.688 2.688,11 6,11 C9.312,11 12,13.688 12,17 C12,18.461 11.477,19.797 10.613,20.84 L10.613,26 C10.613,32.113 17.777,33.781 24,36.004 L24,10.469 C23.066,9.41 22.5,8.023 22.5,6.5 C22.5,3.188 25.188,0.5 28.5,0.5 C31.812,0.5 34.5,3.188 34.5,6.5 C34.5,8.023 33.934,9.41 33,10.469 L33,44.254 C39.223,42.031 46.387,40.363 46.387,34.25 L46.387,19.34 C45.523,18.297 45,16.961 45,15.5 C45,12.188 47.688,9.5 51,9.5 C54.312,9.5 57,12.188 57,15.5 C57,17.082 56.387,18.52 55.387,19.59 L55.387,38.75 C55.387,49.703 35.887,50.305 33,56.426 L33,58.031 C33.934,59.09 34.5,60.477 34.5,62 C34.5,65.312 31.812,68 28.5,68 C25.188,68 22.5,65.312 22.5,62 C22.5,60.477 23.066,59.09 24,58.031 L24,48.176 Z M6,20.75 C8.07,20.75 9.75,19.07 9.75,17 C9.75,14.93 8.07,13.25 6,13.25 C3.93,13.25 2.25,14.93 2.25,17 C2.25,19.07 3.93,20.75 6,20.75 Z M28.5,10.25 C30.57,10.25 32.25,8.57 32.25,6.5 C32.25,4.43 30.57,2.75 28.5,2.75 C26.43,2.75 24.75,4.43 24.75,6.5 C24.75,8.57 26.43,10.25 28.5,10.25 Z M51,19.25 C48.93,19.25 47.25,17.57 47.25,15.5 C47.25,13.43 48.93,11.75 51,11.75 C53.07,11.75 54.75,13.43 54.75,15.5 C54.75,17.57 53.07,19.25 51,19.25 Z M28.5,65.75 C30.57,65.75 32.25,64.07 32.25,62 C32.25,59.93 30.57,58.25 28.5,58.25 C26.43,58.25 24.75,59.93 24.75,62 C24.75,64.07 26.43,65.75 28.5,65.75 Z" class="fill" fill="#000000"></path>
    </g>
</svg>