<svg class="page-icon" width="30px" height="30px" viewBox="0 0 39 61" version="1.1" xmlns="http://www.w3.org/2000/svg" xmlns:xlink="http://www.w3.org/1999/xlink">
    <title>icon-microphone</title>
    <g stroke="none" stroke-width="1" fill="none" fill-rule="evenodd">
        <g class="fill" fill="#000000">
            <path d="M38.848,32.75 C38.848,31.508 37.84,30.5 36.598,30.5 C35.355,30.5 34.348,31.508 34.348,32.75 C34.348,40.938 27.688,47.602 19.5,47.602 C11.312,47.602 4.648,40.938 4.648,32.75 C4.648,31.508 3.641,30.5 2.398,30.5 C1.156,30.5 0.148,31.508 0.148,32.75 C0.148,42.66 7.637,50.848 17.25,51.965 L17.25,56 L9.375,56 C8.133,56 7.125,57.008 7.125,58.25 C7.125,59.492 8.133,60.5 9.375,60.5 L29.625,60.5 C30.867,60.5 31.875,59.492 31.875,58.25 C31.875,57.008 30.867,56 29.625,56 L21.75,56 L21.75,51.965 C31.363,50.848 38.848,42.66 38.848,32.75 Z"></path>
            <path d="M19.5,44.75 C26.531,44.75 32.25,39.031 32.25,32 L32.25,13.25 C32.25,6.219 26.531,0.5 19.5,0.5 C12.469,0.5 6.75,6.219 6.75,13.25 L6.75,32 C6.75,39.031 12.469,44.75 19.5,44.75 Z M11.25,13.25 C11.25,8.703 14.953,5 19.5,5 C24.047,5 27.75,8.703 27.75,13.25 L27.75,32 C27.75,36.547 24.047,40.25 19.5,40.25 C14.953,40.25 11.25,36.547 11.25,32 L11.25,13.25 Z"></path>
            <path d="M19.5,17.75 C20.09,17.75 20.672,17.512 21.09,17.09 C21.512,16.672 21.75,16.094 21.75,15.5 C21.75,14.906 21.512,14.328 21.09,13.91 C20.25,13.07 18.75,13.07 17.91,13.91 C17.488,14.328 17.25,14.906 17.25,15.5 C17.25,16.094 17.488,16.672 17.91,17.09 C18.328,17.512 18.906,17.75 19.5,17.75 Z"></path>
            <path d="M19.5,25.625 C20.09,25.625 20.672,25.387 21.09,24.965 C21.512,24.547 21.75,23.969 21.75,23.375 C21.75,22.781 21.512,22.203 21.09,21.785 C20.25,20.945 18.75,20.945 17.91,21.785 C17.488,22.203 17.25,22.781 17.25,23.375 C17.25,23.969 17.488,24.547 17.91,24.965 C18.328,25.387 18.906,25.625 19.5,25.625 Z"></path>
            <path d="M19.5,33.5 C20.09,33.5 20.672,33.262 21.09,32.84 C21.512,32.422 21.75,31.844 21.75,31.25 C21.75,30.656 21.512,30.078 21.09,29.66 C20.258,28.82 18.742,28.82 17.91,29.66 C17.488,30.078 17.25,30.656 17.25,31.25 C17.25,31.844 17.488,32.422 17.91,32.84 C18.328,33.262 18.906,33.5 19.5,33.5 Z"></path>
        </g>
    </g>
</svg>