<svg class="page-icon" width="30px" height="30px" viewBox="0 0 64 64" version="1.1" xmlns="http://www.w3.org/2000/svg" xmlns:xlink="http://www.w3.org/1999/xlink">
    <title>icon-build</title>
    <g stroke="none" stroke-width="1" fill="none" fill-rule="evenodd">
        <path d="M31.80725,0.24525 C31.54125,0.25725 31.27525,0.32325 31.03725,0.44425 L1.03725,15.44425 C-0.34175,16.13625 -0.34175,18.10425 1.03725,18.79625 L12.68225,24.62025 L1.03725,30.44425 C-0.34575,31.13625 -0.34575,33.10825 1.03725,33.80025 L12.68225,39.62425 L1.03725,45.44825 C-0.34575,46.14025 -0.34575,48.11225 1.03725,48.80425 L31.03725,63.80425 C31.56525,64.06525 32.18625,64.06525 32.71325,63.80425 L62.71325,48.80425 C64.09625,48.11225 64.09625,46.14025 62.71325,45.44825 L51.06825,39.62425 L62.71325,33.80025 C64.09625,33.10825 64.09625,31.13625 62.71325,30.44425 L51.06825,24.62025 L62.71325,18.79625 C64.09225,18.10425 64.09225,16.13625 62.71325,15.44425 L32.71325,0.44425 C32.43225,0.30425 32.11925,0.23725 31.80725,0.24525 Z M31.87725,4.21425 L57.68625,17.11625 L31.87725,30.01825 L6.06825,17.11625 L31.87725,4.21425 Z M16.87725,26.71425 L31.03725,33.79625 C31.56525,34.05825 32.18625,34.05825 32.71325,33.79625 L46.87325,26.71425 L57.68225,32.11625 L31.87325,45.01825 L6.06825,32.12025 L16.87725,26.71425 Z M16.87725,41.71425 L31.03725,48.79625 C31.56525,49.05825 32.18625,49.05825 32.71325,48.79625 L46.87325,41.71425 L57.68225,47.11625 L31.87325,60.01825 L6.06525,47.11625 L16.87725,41.71425 Z"  fill="#000000" class="fill"></path>
    </g>
</svg>